<svg xmlns="http://www.w3.org/2000/svg" width="300mm" height="100mm" viewBox="0 0 300 100"><path d="M19.192 40.083H8.488v11.146H1.352V13.366c5.942 0 11.898-.059 17.84-.059 18.504 0 18.563 26.776 0 26.776zM8.488 33.536h10.704c9.156 0 9.097-13.417 0-13.417H8.488z" class="shp349" fill="#21262c" fill-rule="evenodd"/><path d="M37.43 24.454v26.775h6.606V24.454zm7.24-6.06a3.936 3.936 0 00-3.937-3.937 3.927 3.927 0 00-3.937 3.937 3.927 3.927 0 003.937 3.937 3.936 3.936 0 003.937-3.937zM77.623 24.513l-11.368 26.82H59.12l-11.412-26.82h7.195l3.671 8.817 4.114 11.25 4.055-11.147 3.686-8.92zM123.447 17.038v7.578h7.358v5.676h-7.417v11.53c0 2.536 1.416 3.775 3.465 3.775 1.032 0 2.212-.325 3.185-.811l1.843 5.632c-1.887.752-3.465 1.076-5.455 1.135-5.795.222-9.584-3.081-9.584-9.73v-11.53h-4.969v-5.677h4.97v-6.87z" class="shp349" fill="#21262c"/><path d="M156.872 24.557h6.34v26.672h-6.222l-.324-3.892c-1.519 3.14-5.691 4.644-8.655 4.703-7.903.059-13.741-4.807-13.741-14.17 0-9.2 6.104-14.006 13.903-13.962 3.568 0 6.974 1.681 8.493 4.335zM140.86 37.871c0 5.087 3.524 8.11 7.903 8.11 10.38 0 10.38-16.175 0-16.175-4.379 0-7.903 2.978-7.903 8.065z" class="shp349" fill="#21262c" fill-rule="evenodd"/><path d="M175.317 13.41v37.82h-6.546V13.41z" class="shp349" fill="#21262c"/><path d="M98.884 77.93H84.847l-2.3 5.058h-5.47l12.031-26.834h5.515l12.046 26.834h-5.53zM91.866 61.8l-4.984 11.412h9.967z" class="shp322" fill="#1d0370" fill-rule="evenodd"/><path d="M124.406 80.585c-2.182 2.137-4.482 2.978-7.284 2.978-5.47 0-10.04-3.288-10.04-9.997 0-6.708 4.57-10.01 10.04-10.01 2.684 0 4.763.766 6.827 2.8l-2.95 3.111c-1.105-1.002-2.49-1.503-3.788-1.503-3.156 0-5.456 2.3-5.456 5.602 0 3.598 2.463 5.515 5.367 5.515 1.504 0 2.993-.413 4.143-1.563zM142.703 80.585c-2.197 2.137-4.497 2.978-7.283 2.978-5.485 0-10.056-3.288-10.056-9.997 0-6.708 4.57-10.01 10.056-10.01 2.683 0 4.747.766 6.811 2.8l-2.948 3.111c-1.106-1.002-2.492-1.503-3.79-1.503-3.14 0-5.44 2.3-5.44 5.602 0 3.598 2.447 5.515 5.367 5.515 1.489 0 2.978-.413 4.128-1.563z" class="shp322" fill="#1d0370"/><path d="M149.515 75.218c.31 2.33 2.344 4.025 5.632 4.025 1.725 0 3.996-.664 5.072-1.77l2.978 2.95c-1.99 2.078-5.248 3.066-8.124 3.066-6.516 0-10.38-4.025-10.38-10.085 0-5.75 3.908-9.878 10.041-9.878 6.326 0 10.277 3.907 9.54 11.692zm10.277-3.878c-.31-2.448-2.227-3.686-4.91-3.686-2.521 0-4.6 1.238-5.293 3.686z" class="shp322" fill="#1d0370" fill-rule="evenodd"/><path d="M180.227 69.114c-1.342-1.268-2.875-1.681-4.674-1.681-2.226 0-3.45.693-3.45 1.872 0 1.224 1.106 1.917 3.524 2.08 3.568.22 8.08 1.031 8.08 6.044 0 3.347-2.713 6.222-8.125 6.222-2.993 0-5.97-.501-8.743-3.376l2.3-3.332c1.342 1.489 4.409 2.595 6.517 2.639 1.77.044 3.42-.885 3.42-2.256 0-1.312-1.076-1.843-3.759-2.005-3.568-.266-7.814-1.563-7.814-5.854 0-4.379 4.511-5.912 7.961-5.912 2.964 0 5.176.575 7.373 2.492zM199.04 69.114c-1.341-1.268-2.875-1.681-4.674-1.681-2.226 0-3.45.693-3.45 1.872 0 1.224 1.106 1.917 3.524 2.08 3.568.22 8.095 1.031 8.095 6.044 0 3.347-2.728 6.222-8.124 6.222-2.993 0-5.986-.501-8.744-3.376l2.3-3.332c1.342 1.489 4.409 2.595 6.517 2.639 1.755.044 3.406-.885 3.406-2.256 0-1.312-1.076-1.843-3.76-2.005-3.553-.266-7.814-1.563-7.814-5.854 0-4.379 4.527-5.912 7.977-5.912 2.948 0 5.175.575 7.357 2.492z" class="shp322" fill="#1d0370"/><path d="M205.1 58.763c0 3.642 5.514 3.642 5.514 0 0-3.641-5.514-3.641-5.514 0zm.428 5.25v18.975h4.674V64.012zM219.092 56.198v10.468c1.106-1.96 4.217-3.037 6.207-3.037 5.53 0 9.628 3.376 9.628 9.893 0 6.207-4.187 9.893-9.745 9.893-2.3 0-4.63-.766-6.09-3.022l-.31 2.595h-4.364v-26.79zm.31 17.324c0 3.42 2.521 5.559 5.485 5.559 2.978 0 5.366-2.256 5.366-5.559 0-3.406-2.388-5.514-5.366-5.514-2.964 0-5.485 2.226-5.485 5.514zM237.95 58.763c0 3.642 5.514 3.642 5.514 0 0-3.641-5.514-3.641-5.514 0zm.427 5.25v18.975h4.674V64.012z" class="shp322" fill="#1d0370" fill-rule="evenodd"/><path d="M251.898 56.198v26.79h-4.63v-26.79z" class="shp322" fill="#1d0370"/><path d="M255.584 58.763c0 3.642 5.514 3.642 5.514 0 0-3.641-5.514-3.641-5.514 0zm.427 5.25v18.975h4.674V64.012z" class="shp322" fill="#1d0370" fill-rule="evenodd"/><path d="M271.493 58.763v5.367h5.219v4.025h-5.264v8.168c0 1.8 1.003 2.684 2.463 2.684.722 0 1.563-.236 2.256-.575l1.312 3.98c-1.342.546-2.463.767-3.878.812-4.099.147-6.782-2.182-6.782-6.9v-8.169h-3.524V64.13h3.524v-4.865zM299.669 64.1l-11.545 26.79h-5.131l3.524-8.197-7.55-18.592h5.441l2.876 8.153 1.798 5.337 1.961-5.219 3.45-8.271z" class="shp322" fill="#1d0370"/><path d="M92.677 21.284h7.46c1.224.015 2.167.545 2.521 1.74.325 1.061-.03 2.034-1.002 2.639-.413.25-.988.368-1.49.368-2.152.045-4.305.015-6.413.015-.06.148-.089.192-.089.221.177 2.58.177 2.58 2.728 2.58 2.507 0 5.028-.014 7.534 0 1.976.03 2.536.502 3.023 2.433.84 3.362 1.68 6.724 2.55 10.188.826-.191 1.549-.353 2.271-.516 1.357-.294 2.477.28 2.846 1.475.427 1.342-.162 2.698-1.49 3.081a52.422 52.422 0 01-4.998 1.195c-1.46.265-2.403-.428-2.801-1.961-.885-3.362-1.755-6.724-2.55-10.1-.192-.826-.546-1.047-1.328-1.032-2.875.03-5.735.015-8.596.015-2.211-.015-2.86-.502-3.273-2.61-.943-4.836-1.843-9.672-2.801-14.508a6.237 6.237 0 00-.649-1.843c-1.238-2.227-.737-4.807 1.239-6.09 2.02-1.327 4.57-.884 5.986 1.033 1.46 2.005 1.017 4.511-1.047 6.192-.265.206-.575.634-.53.9.235 1.503.574 3.007.899 4.585z" class="shp349" fill="#21262c"/><path d="M102.968 45.435c-.56-2.168-1.18-4.542-1.784-6.96-.472 4.173-3.037 8.242-8.98 8.242-6.53 0-8.993-4.88-9.111-9.421-.074-3.037 1.032-6.325 3.612-8.257-.28-1.46-.56-2.904-.84-4.364l-.133-.708c-5.22 2.448-7.785 7.859-7.785 13.24 0 7.284 4.512 14.287 14.258 14.287 5.175 0 8.846-2.02 11.146-4.998a6.896 6.896 0 01-.383-1.061z" class="shp349" fill="#21262c"/></svg>